<?xml version="1.0" encoding="utf-8"?>
<!-- Generator: Adobe Illustrator 21.1.0, SVG Export Plug-In . SVG Version: 6.00 Build 0)  -->
<svg version="1.1" id="图层_1" xmlns="http://www.w3.org/2000/svg" xmlns:xlink="http://www.w3.org/1999/xlink" x="0px" y="0px"
	 viewBox="0 0 363.2 524" style="enable-background:new 0 0 363.2 524;" xml:space="preserve">
<style type="text/css">
	.st0{fill:none;stroke:#265473;}
	.st1{fill:none;stroke:#EEB635;}
	.st2{fill:none;stroke:#9B9B9B;}
	.st3{font-family:'MicrosoftYaHeiLight';}
	.st4{font-size:12px;}
	.st5{fill:none;stroke:#7F7F7F;stroke-dasharray:6;}
	.st6{font-family:'MicrosoftYaHei-Bold';}
	.st7{font-size:14px;}
	.st8{fill:#A3A3A3;}
	.st9{opacity:0.1;fill:#265473;}
	.st10{opacity:0.16;fill:#EEB635;}
</style>
<title>rev-expmobile</title>
<rect x="45.8" y="48.3" class="st0" width="227.1" height="14.7"/>
<rect x="46" y="98.6" transform="matrix(1 -1.570794e-03 1.570794e-03 1 -0.1663 0.2507)" class="st0" width="227.1" height="14.7"/>
<rect x="45.8" y="149.5" class="st0" width="227.1" height="14.7"/>
<rect x="46.1" y="199.8" transform="matrix(1 -1.570794e-03 1.570794e-03 1 -0.3253 0.251)" class="st0" width="227.1" height="14.7"/>
<rect x="46.2" y="250.4" transform="matrix(1 -1.570794e-03 1.570794e-03 1 -0.4048 0.2512)" class="st0" width="227.1" height="14.7"/>
<rect x="45.8" y="301.3" class="st0" width="227" height="14.7"/>
<rect x="45.8" y="351.9" class="st0" width="227.1" height="14.7"/>
<rect x="45.8" y="402.5" class="st0" width="227.1" height="14.7"/>
<rect x="45.9" y="65.9" transform="matrix(1 -1.570794e-03 1.570794e-03 1 -0.1148 0.2785)" class="st1" width="262.7" height="14.7"/>
<rect x="46" y="116.5" transform="matrix(1 -1.570794e-03 1.570794e-03 1 -0.1943 0.2545)" class="st1" width="232" height="14.7"/>
<rect x="45.8" y="167.3" class="st1" width="262.9" height="14.7"/>
<rect x="45.8" y="217.9" class="st1" width="238" height="14.7"/>
<rect x="46.2" y="268.3" transform="matrix(1 -1.570794e-03 1.570794e-03 1 -0.4328 0.2512)" class="st1" width="227" height="14.7"/>
<rect x="46.3" y="318.8" transform="matrix(1 -1.570794e-03 1.570794e-03 1 -0.5122 0.3012)" class="st1" width="290.5" height="14.7"/>
<rect x="45.8" y="369.8" class="st1" width="230.3" height="14.7"/>
<rect x="45.8" y="420.4" class="st1" width="232.8" height="14.7"/>
<line class="st2" x1="45.9" y1="31" x2="45.9" y2="446"/>
<line class="st2" x1="45.9" y1="65.7" x2="42" y2="65.7"/>
<line class="st2" x1="45.9" y1="116.3" x2="42" y2="116.3"/>
<line class="st2" x1="45.9" y1="166.9" x2="42" y2="166.9"/>
<line class="st2" x1="45.9" y1="217.5" x2="42" y2="217.5"/>
<line class="st2" x1="45.9" y1="268.1" x2="42" y2="268.1"/>
<line class="st2" x1="45.9" y1="318.8" x2="42" y2="318.8"/>
<line class="st2" x1="46.4" y1="369.3" x2="42.5" y2="369.3"/>
<line class="st2" x1="45.9" y1="419.9" x2="42" y2="419.9"/>
<text transform="matrix(1 0 0 1 0 69.65)" class="st3 st4">2000年</text>
<text transform="matrix(1 0 0 1 0 118.98)" class="st3 st4">2002年</text>
<text transform="matrix(1 0 0 1 0 170.98)" class="st3 st4">2004年</text>
<text transform="matrix(1 0 0 1 0 220.98)" class="st3 st4">2008年</text>
<text transform="matrix(1 0 0 1 0 270.98)" class="st3 st4">2010年</text>
<text transform="matrix(1 0 0 1 0 322.98)" class="st3 st4">2012年</text>
<text transform="matrix(1 0 0 1 0 372.32)" class="st3 st4">2014年</text>
<text transform="matrix(1 0 0 1 0 422.98)" class="st3 st4">2018年</text>
<line class="st5" x1="273" y1="20.9" x2="273" y2="444.5"/>
<text transform="matrix(1 0 0 1 230.67 35.38)" class="st3 st4">单位“1”</text>
<text transform="matrix(1 0 0 1 316.67 76.98)" class="st3 st4">1.16倍</text>
<text transform="matrix(1 0 0 1 284.08 131.38)" class="st3 st4">1.02</text>
<text transform="matrix(1 0 0 1 316.67 178.65)" class="st3 st4">1.16</text>
<text transform="matrix(1 0 0 1 289 229.3201)" class="st3 st4">1.05</text>
<text transform="matrix(1 0 0 1 277.93 279.98)" class="st3 st4">1.00</text>
<text transform="matrix(1 0 0 1 342.33 330.65)" class="st3 st4">1.28</text>
<text transform="matrix(1 0 0 1 284.08 379.98)" class="st3 st4">1.01</text>
<text transform="matrix(1 0 0 1 284.08 431.32)" class="st3 st4">1.03</text>
<rect x="65.2" y="456.5" class="st0" width="14.3" height="14.3"/>
<text transform="matrix(1 0 0 1 88 467.38)" class="st3 st4">支出</text>
<rect x="159.4" y="456.5" class="st1" width="14.3" height="14.3"/>
<text transform="matrix(1 0 0 1 182.24 467.38)" class="st3 st4">收入</text>
<text transform="matrix(1 0 0 1 0 12.04)" class="st6 st7">奥组委支出收入对比</text>
<text transform="matrix(1 0 0 1 0 492.04)" class="st8 st3 st4">数据来源：</text>
<text transform="matrix(1 0 0 1 0 506.44)" class="st8 st3 st4">国际奥林匹克委员会官方网站——</text>
<text transform="matrix(1 0 0 1 0 520.84)" class="st8 st3 st4">Cost and Revenue Overruns </text>
<text transform="matrix(1 0 0 1 155.33 520.84)" class="st8 st3 st4">o</text>
<text transform="matrix(1 0 0 1 162.26 520.84)" class="st8 st3 st4">f the Olympic Games 2000-2018</text>
<rect x="152.5" y="-57.3" transform="matrix(-1.836970e-16 1 -1 -1.836970e-16 214.9994 -103.7169)" class="st9" width="13.7" height="226"/>
<rect x="170.4" y="-57.9" transform="matrix(-1.836970e-16 1 -1 -1.836970e-16 250.2322 -104.1756)" class="st10" width="13.7" height="261.8"/>
<rect x="170.4" y="43.8" transform="matrix(-1.836970e-16 1 -1 -1.836970e-16 351.8989 -2.5089)" class="st10" width="13.7" height="261.8"/>
<rect x="157.9" y="106.9" transform="matrix(-1.836970e-16 1 -1 -1.836970e-16 390.0335 60.5565)" class="st10" width="13.7" height="236.9"/>
<rect x="152.7" y="162.2" transform="matrix(-1.836970e-16 1 -1 -1.836970e-16 434.9868 115.9264)" class="st10" width="13.7" height="226.4"/>
<rect x="184.4" y="181" transform="matrix(-1.836970e-16 1 -1 -1.836970e-16 517.2633 134.6925)" class="st10" width="13.7" height="290"/>
<rect x="154.1" y="262.5" transform="matrix(-1.836970e-16 1 -1 -1.836970e-16 537.9944 216.1528)" class="st10" width="13.7" height="229.2"/>
<rect x="155.3" y="311.8" transform="matrix(-1.836970e-16 1 -1 -1.836970e-16 589.9014 265.5286)" class="st10" width="13.7" height="231.8"/>
<rect x="159.9" y="457.1" transform="matrix(-1.836970e-16 1 -1 -1.836970e-16 630.3226 297.1805)" class="st10" width="13.4" height="13.4"/>
<rect x="155" y="8.1" transform="matrix(-1.836970e-16 1 -1 -1.836970e-16 285.5219 -38.1739)" class="st10" width="13.7" height="231.1"/>
<rect x="152.5" y="-7.2" transform="matrix(-1.836970e-16 1 -1 -1.836970e-16 265.1915 -53.5248)" class="st9" width="13.7" height="226"/>
<rect x="152.5" y="43.9" transform="matrix(-1.836970e-16 1 -1 -1.836970e-16 316.2131 -2.5031)" class="st9" width="13.7" height="226"/>
<rect x="152.8" y="94" transform="matrix(-1.836970e-16 1 -1 -1.836970e-16 366.688 47.3482)" class="st9" width="13.7" height="226"/>
<rect x="152.8" y="144.8" transform="matrix(-1.836970e-16 1 -1 -1.836970e-16 417.474 98.1342)" class="st9" width="13.7" height="226"/>
<rect x="152.8" y="195.7" transform="matrix(-1.836970e-16 1 -1 -1.836970e-16 468.3249 148.9851)" class="st9" width="13.7" height="226"/>
<rect x="152.8" y="246.3" transform="matrix(-1.836970e-16 1 -1 -1.836970e-16 518.9299 199.5901)" class="st9" width="13.7" height="226"/>
<rect x="152.8" y="296.9" transform="matrix(-1.836970e-16 1 -1 -1.836970e-16 569.5349 250.1951)" class="st9" width="13.7" height="226"/>
<rect x="65.7" y="457" transform="matrix(-1.836970e-16 1 -1 -1.836970e-16 536.0839 391.3684)" class="st9" width="13.4" height="13.4"/>
</svg>
