<?xml version="1.0" encoding="utf-8"?>
<!-- Generator: Adobe Illustrator 22.1.0, SVG Export Plug-In . SVG Version: 6.00 Build 0)  -->
<svg version="1.1" id="图层_1" xmlns="http://www.w3.org/2000/svg" xmlns:xlink="http://www.w3.org/1999/xlink" x="0px" y="0px"
	 viewBox="0 0 788.5 433" style="enable-background:new 0 0 788.5 433;" xml:space="preserve">
<style type="text/css">
	.st0{fill:none;stroke:#265473;stroke-width:2;}
	.st1{fill:none;stroke:#EEB635;stroke-width:2;}
	.st2{fill:none;stroke:#000000;}
	.st3{font-family:'ArialMT';}
	.st4{font-size:12px;}
	.st5{font-family:'AdobeSongStd-Light-GBpc-EUC-H';}
	.st6{fill:none;}
	.st7{font-size:14px;}
	.st8{font-family:'MicrosoftYaHeiLight';}
	.st9{fill:none;stroke:#8E8E8E;stroke-miterlimit:10;stroke-dasharray:12;}
	.st10{fill:none;stroke:#265473;}
	.st11{fill:none;stroke:#EEB635;}
	.st12{fill:#848484;}
	.st13{font-family:'MicrosoftYaHei';}
	.st14{font-family:'MicrosoftYaHei-Bold';}
	.st15{font-size:18px;}
</style>
<title>rev-exp_5</title>
<g id="图层_2_1_">
	<g id="图层_1-2">
		<rect x="72.2" y="118.1" class="st0" width="19.3" height="250.1"/>
		<rect x="161.6" y="118.1" class="st0" width="19.4" height="250.1"/>
		<rect x="251" y="118.1" class="st0" width="19.4" height="250.1"/>
		<rect x="340.4" y="118.1" class="st0" width="19.4" height="250.1"/>
		<rect x="429.9" y="118.1" class="st0" width="19.4" height="250.1"/>
		<rect x="519.3" y="118.1" class="st0" width="19.3" height="250.1"/>
		<rect x="608.7" y="118.1" class="st0" width="19.3" height="250.1"/>
		<rect x="698.1" y="118.1" class="st0" width="19.3" height="250.1"/>
		<rect x="94.6" y="78.8" class="st1" width="19.3" height="289.5"/>
		<rect x="184" y="112.7" class="st1" width="19.4" height="255.5"/>
		<rect x="273.4" y="78.6" class="st1" width="19.4" height="289.7"/>
		<rect x="362.8" y="106.1" class="st1" width="19.4" height="262.1"/>
		<rect x="452.2" y="118.1" class="st1" width="19.4" height="250.1"/>
		<rect x="541.6" y="48.2" class="st1" width="19.3" height="320"/>
		<rect x="631" y="114.5" class="st1" width="19.3" height="253.7"/>
		<rect x="720.4" y="111.8" class="st1" width="19.3" height="256.4"/>
		<path class="st2" d="M28,374.2v-5.5h760v5.5"/>
		<line class="st2" x1="94.6" y1="368.2" x2="94.6" y2="374.2"/>
		<text transform="matrix(1 0 0 1 79.69 384.33)" class="st3 st4">2000</text>
		<text transform="matrix(1 0 0 1 106.39 384.5922)" class="st5 st4">年</text>
		<line class="st2" x1="184" y1="368.2" x2="184" y2="374.2"/>
		<text transform="matrix(1 0 0 1 169.1 384.33)" class="st3 st4">2002</text>
		<text transform="matrix(1 0 0 1 195.8 384.5922)" class="st5 st4">年</text>
		<line class="st2" x1="273.4" y1="368.2" x2="273.4" y2="374.2"/>
		<text transform="matrix(1 0 0 1 258.51 384.33)" class="st3 st4">2004</text>
		<text transform="matrix(1 0 0 1 285.21 384.5922)" class="st5 st4">年</text>
		<line class="st2" x1="362.8" y1="368.2" x2="362.8" y2="374.2"/>
		<text transform="matrix(1 0 0 1 347.92 384.33)" class="st3 st4">2008</text>
		<text transform="matrix(1 0 0 1 374.62 384.5922)" class="st5 st4">年</text>
		<line class="st2" x1="452.2" y1="368.2" x2="452.2" y2="374.2"/>
		<text transform="matrix(1 0 0 1 437.33 384.33)" class="st3 st4">2010</text>
		<text transform="matrix(1 0 0 1 464.03 384.5922)" class="st5 st4">年</text>
		<line class="st2" x1="541.6" y1="368.2" x2="541.6" y2="374.2"/>
		<text transform="matrix(1 0 0 1 526.74 384.33)" class="st3 st4">2012</text>
		<text transform="matrix(1 0 0 1 553.44 384.5922)" class="st5 st4">年</text>
		<line class="st2" x1="631" y1="368.2" x2="631" y2="374.2"/>
		<text transform="matrix(1 0 0 1 616.16 384.33)" class="st3 st4">2014</text>
		<text transform="matrix(1 0 0 1 642.86 384.5922)" class="st5 st4">年</text>
		<line class="st2" x1="720.4" y1="368.2" x2="720.4" y2="374.2"/>
		<text transform="matrix(1 0 0 1 705.57 384.33)" class="st3 st4">2018</text>
		<text transform="matrix(1 0 0 1 732.27 384.5922)" class="st5 st4">年</text>
		<line class="st6" x1="27.5" y1="118.1" x2="787.5" y2="118.1"/>
		<text transform="matrix(1 0 0 1 84.56 68.78)" class="st3 st7">1.16</text>
		<text transform="matrix(1 0 0 1 111.81 69.0859)" class="st5 st7">倍</text>
		<text transform="matrix(1 0 0 1 173.97 102.69)" class="st3 st7">1.02</text>
		<text transform="matrix(1 0 0 1 201.22 102.9959)" class="st5 st7">倍</text>
		<text transform="matrix(1 0 0 1 263.38 68.57)" class="st3 st7">1.16</text>
		<text transform="matrix(1 0 0 1 290.63 68.8759)" class="st5 st7">倍</text>
		<text transform="matrix(1 0 0 1 352.79 96.1)" class="st3 st7">1.05</text>
		<text transform="matrix(1 0 0 1 380.04 96.4059)" class="st5 st7">倍</text>
		<text transform="matrix(1 0 0 1 442.21 108.11)" class="st3 st7">1.00</text>
		<text transform="matrix(1 0 0 1 469.46 108.4159)" class="st5 st7">倍</text>
		<text transform="matrix(1 0 0 1 531.62 38.23)" class="st3 st7">1.28</text>
		<text transform="matrix(1 0 0 1 558.87 38.5359)" class="st5 st7">倍</text>
		<text transform="matrix(1 0 0 1 621.03 104.54)" class="st3 st7">1.01</text>
		<text transform="matrix(1 0 0 1 648.28 104.8459)" class="st5 st7">倍</text>
		<text transform="matrix(1 0 0 1 710.44 101.82)" class="st3 st7">1.03</text>
		<text transform="matrix(1 0 0 1 737.69 102.1259)" class="st5 st7">倍</text>
		<text transform="matrix(1 0 0 1 24 138.23)" class="st8 st7">单位“1”</text>
		<line class="st9" x1="25.5" y1="118.1" x2="785.5" y2="118.1"/>
		<rect x="696.1" y="16.5" class="st10" width="14.5" height="14.5"/>
		<rect x="696.1" y="38.2" class="st11" width="14.5" height="14.5"/>
		<text transform="matrix(1 0 0 1 715.44 28.56)" class="st8 st7">支出</text>
		<text transform="matrix(1 0 0 1 715.44 52.77)" class="st8 st7">收入</text>
		<text transform="matrix(1 0 0 1 348.3748 410.7602)" class="st12 st13 st4">数据来源  国际奥林匹克委员会官方网站——</text>
		<text transform="matrix(1 0 0 1 348.3748 425.1602)" class="st12 st13 st4">               Cost and </text>
		<text transform="matrix(1 0 0 1 456.1249 425.1602)" class="st12 st13 st4">R</text>
		<text transform="matrix(1 0 0 1 463.5948 425.1602)" class="st12 st13 st4">e</text>
		<text transform="matrix(1 0 0 1 470.4048 425.1602)" class="st12 st13 st4">v</text>
		<text transform="matrix(1 0 0 1 476.6249 425.1602)" class="st12 st13 st4">enue O</text>
		<text transform="matrix(1 0 0 1 518.3649 425.1602)" class="st12 st13 st4">v</text>
		<text transform="matrix(1 0 0 1 524.5848 425.1602)" class="st12 st13 st4">erruns  </text>
		<text transform="matrix(1 0 0 1 568.0049 425.1602)" class="st12 st13 st4">o</text>
		<text transform="matrix(1 0 0 1 575.3948 425.1602)" class="st12 st13 st4">f the Olympic Games 2000-2018</text>
	</g>
</g>
<text transform="matrix(1 0 0 1 28 38.23)" class="st14 st15">奥组委支出收入对比</text>
</svg>
