<svg xmlns="http://www.w3.org/2000/svg" viewBox="0 0 363.18 523.99"><defs><style>.cls-1,.cls-2,.cls-3,.cls-5,.cls-6{fill:none;}.cls-1{stroke:#265473;}.cls-2{stroke:#eeb635;}.cls-3{stroke:#9b9b9b;}.cls-4,.cls-8{font-size:12px;font-family:MicrosoftYaHeiLight, Microsoft YaHei;}.cls-5,.cls-6{stroke:#7f7f7f;}.cls-6{stroke-dasharray:12.08 12.08;}.cls-7{font-size:14px;font-family:MicrosoftYaHei-Bold, Microsoft YaHei;font-weight:700;}.cls-8{fill:#a3a3a3;}.cls-9{letter-spacing:-0.03em;}</style></defs><title>rev-expmobile</title><g id="图层_2" data-name="图层 2"><g id="图层_1-2" data-name="图层 1"><rect class="cls-1" x="45.89" y="48.04" width="227.05" height="14.71" transform="matrix(1, 0, 0, 1, -0.09, 0.25)"/><rect class="cls-1" x="45.97" y="98.65" width="227.05" height="14.71" transform="translate(-0.17 0.25) rotate(-0.09)"/><rect class="cls-1" x="46.05" y="149.25" width="227.05" height="14.71" transform="matrix(1, 0, 0, 1, -0.25, 0.25)"/><rect class="cls-1" x="46.13" y="199.85" width="227.05" height="14.71" transform="translate(-0.33 0.25) rotate(-0.09)"/><rect class="cls-1" x="46.21" y="250.45" width="227.05" height="14.71" transform="translate(-0.41 0.25) rotate(-0.09)"/><rect class="cls-1" x="46.29" y="301.05" width="227.05" height="14.71" transform="matrix(1, 0, 0, 1, -0.49, 0.25)"/><rect class="cls-1" x="46.37" y="351.66" width="227.05" height="14.71" transform="matrix(1, 0, 0, 1, -0.57, 0.25)"/><rect class="cls-1" x="46.45" y="402.26" width="227.05" height="14.71" transform="matrix(1, 0, 0, 1, -0.65, 0.25)"/><rect class="cls-2" x="45.88" y="65.86" width="262.74" height="14.71" transform="translate(-0.12 0.28) rotate(-0.09)"/><rect class="cls-2" x="45.96" y="116.48" width="231.96" height="14.71" transform="translate(-0.2 0.26) rotate(-0.09)"/><rect class="cls-2" x="46.04" y="167.06" width="262.93" height="14.71" transform="matrix(1, 0, 0, 1, -0.28, 0.28)"/><rect class="cls-2" x="46.12" y="217.68" width="237.95" height="14.71" transform="matrix(1, 0, 0, 1, -0.36, 0.26)"/><rect class="cls-2" x="46.2" y="268.29" width="227.04" height="14.71" transform="translate(-0.43 0.25) rotate(-0.09)"/><rect class="cls-2" x="46.28" y="318.85" width="290.47" height="14.71" transform="translate(-0.51 0.3) rotate(-0.09)"/><rect class="cls-2" x="46.36" y="369.5" width="230.28" height="14.71" transform="matrix(1, 0, 0, 1, -0.59, 0.26)"/><rect class="cls-2" x="46.44" y="420.1" width="232.75" height="14.71" transform="matrix(1, 0, 0, 1, -0.67, 0.26)"/><line class="cls-3" x1="45.87" y1="31.04" x2="45.87" y2="446.04"/><line class="cls-3" x1="45.87" y1="65.65" x2="42" y2="65.65"/><line class="cls-3" x1="45.87" y1="116.3" x2="42" y2="116.3"/><line class="cls-3" x1="45.87" y1="166.85" x2="42" y2="166.85"/><line class="cls-3" x1="45.87" y1="217.5" x2="42" y2="217.5"/><line class="cls-3" x1="45.87" y1="268.14" x2="42" y2="268.14"/><line class="cls-3" x1="45.87" y1="318.78" x2="42" y2="318.78"/><line class="cls-3" x1="46.36" y1="369.32" x2="42.49" y2="369.32"/><line class="cls-3" x1="45.87" y1="419.91" x2="42" y2="419.91"/><text class="cls-4" transform="translate(0 69.65)">2000年</text><text class="cls-4" transform="translate(0 118.98)">2002年</text><text class="cls-4" transform="translate(0 170.98)">2004年</text><text class="cls-4" transform="translate(0 220.98)">2008年</text><text class="cls-4" transform="translate(0 270.98)">2010年</text><text class="cls-4" transform="translate(0 322.98)">2012年</text><text class="cls-4" transform="translate(0 372.32)">2014年</text><text class="cls-4" transform="translate(0 422.98)">2018年</text><line class="cls-5" x1="272.95" y1="35.38" x2="272.95" y2="41.38"/><line class="cls-6" x1="272.95" y1="53.46" x2="272.95" y2="434"/><line class="cls-5" x1="272.95" y1="440.04" x2="272.95" y2="446.04"/><text class="cls-4" transform="translate(230.67 35.38)">单位“1”</text><text class="cls-4" transform="translate(316.67 76.98)">1.16倍</text><text class="cls-4" transform="translate(284.08 131.38)">1.02</text><text class="cls-4" transform="translate(316.67 178.65)">1.16</text><text class="cls-4" transform="translate(289 229.32)">1.05</text><text class="cls-4" transform="translate(277.93 279.98)">1.00</text><text class="cls-4" transform="translate(342.33 330.65)">1.28</text><text class="cls-4" transform="translate(284.08 379.98)">1.01</text><text class="cls-4" transform="translate(284.08 431.32)">1.03</text><rect class="cls-1" x="65.17" y="456.54" width="14.33" height="14.33"/><text class="cls-4" transform="translate(88 467.38)">支出</text><rect class="cls-2" x="159.41" y="456.54" width="14.33" height="14.33"/><text class="cls-4" transform="translate(182.24 467.38)">收入</text><text class="cls-7" transform="translate(0 12.04)">奥组委支出收入对比</text><text class="cls-8" transform="translate(0 492.04)">数据来源：<tspan x="0" y="14.4">国际奥林匹克委员会官方网站——</tspan><tspan x="0" y="28.8">Cost and Revenue Overruns </tspan><tspan class="cls-9" x="155.33" y="28.8">o</tspan><tspan x="162.26" y="28.8">f the Olympic Games 2000-2018</tspan></text></g></g></svg>