<svg xmlns="http://www.w3.org/2000/svg" viewBox="0 0 764.5 372.23"><defs><style>.cls-1,.cls-10,.cls-11,.cls-2,.cls-3,.cls-6,.cls-9{fill:none;}.cls-1,.cls-10{stroke:#265473;}.cls-1,.cls-2{stroke-width:2px;}.cls-11,.cls-2{stroke:#eeb635;}.cls-3{stroke:#000;}.cls-4,.cls-7,.cls-8{isolation:isolate;}.cls-4{font-size:12px;}.cls-4,.cls-7{font-family:ArialMT, Arial;}.cls-5{font-family:AdobeSongStd-Light-GBpc-EUC-H, Adobe Song Std;}.cls-7,.cls-8{font-size:14px;}.cls-8{font-family:MicrosoftYaHeiLight, Microsoft YaHei;}.cls-9{stroke:#8e8e8e;stroke-miterlimit:10;stroke-dasharray:12;}</style></defs><title>rev-exp_1</title><g id="图层_2" data-name="图层 2"><g id="图层_1-2" data-name="图层 1"><rect class="cls-1" x="48.21" y="102.1" width="19.35" height="250.13"/><rect class="cls-1" x="137.62" y="102.1" width="19.35" height="250.13"/><rect class="cls-1" x="227.03" y="102.1" width="19.35" height="250.13"/><rect class="cls-1" x="316.44" y="102.1" width="19.35" height="250.13"/><rect class="cls-1" x="405.85" y="102.1" width="19.35" height="250.13"/><rect class="cls-1" x="495.26" y="102.1" width="19.35" height="250.13"/><rect class="cls-1" x="584.68" y="102.1" width="19.35" height="250.13"/><rect class="cls-1" x="674.09" y="102.1" width="19.35" height="250.13"/><rect class="cls-2" x="70.56" y="62.78" width="19.35" height="289.45"/><rect class="cls-2" x="159.97" y="96.69" width="19.35" height="255.54"/><rect class="cls-2" x="249.38" y="62.57" width="19.35" height="289.66"/><rect class="cls-2" x="338.79" y="90.1" width="19.35" height="262.13"/><rect class="cls-2" x="428.21" y="102.11" width="19.35" height="250.12"/><rect class="cls-2" x="517.62" y="32.23" width="19.35" height="320"/><rect class="cls-2" x="607.03" y="98.54" width="19.35" height="253.69"/><rect class="cls-2" x="696.44" y="95.82" width="19.35" height="256.41"/><path class="cls-3" d="M4,358.23v-5.5H764v5.5"/><line class="cls-3" x1="70.56" y1="352.23" x2="70.56" y2="358.23"/><text class="cls-4" transform="translate(55.69 368.33)">2000<tspan class="cls-5" x="26.7" y="0">年</tspan></text><line class="cls-3" x1="159.97" y1="352.23" x2="159.97" y2="358.23"/><text class="cls-4" transform="translate(145.1 368.33)">2002<tspan class="cls-5" x="26.7" y="0">年</tspan></text><line class="cls-3" x1="249.38" y1="352.23" x2="249.38" y2="358.23"/><text class="cls-4" transform="translate(234.51 368.33)">2004<tspan class="cls-5" x="26.7" y="0">年</tspan></text><line class="cls-3" x1="338.79" y1="352.23" x2="338.79" y2="358.23"/><text class="cls-4" transform="translate(323.92 368.33)">2008<tspan class="cls-5" x="26.7" y="0">年</tspan></text><line class="cls-3" x1="428.21" y1="352.23" x2="428.21" y2="358.23"/><text class="cls-4" transform="translate(413.33 368.33)">2010<tspan class="cls-5" x="26.7" y="0">年</tspan></text><line class="cls-3" x1="517.62" y1="352.23" x2="517.62" y2="358.23"/><text class="cls-4" transform="translate(502.74 368.33)">2012<tspan class="cls-5" x="26.7" y="0">年</tspan></text><line class="cls-3" x1="607.03" y1="352.23" x2="607.03" y2="358.23"/><text class="cls-4" transform="translate(592.16 368.33)">2014<tspan class="cls-5" x="26.7" y="0">年</tspan></text><line class="cls-3" x1="696.44" y1="352.23" x2="696.44" y2="358.23"/><text class="cls-4" transform="translate(681.57 368.33)">2018<tspan class="cls-5" x="26.7" y="0">年</tspan></text><line class="cls-6" x1="3.5" y1="102.1" x2="763.5" y2="102.1"/><text class="cls-7" transform="translate(60.56 52.78)">1.16<tspan class="cls-5" x="27.25" y="0">倍</tspan></text><text class="cls-7" transform="translate(149.97 86.69)">1.02<tspan class="cls-5" x="27.25" y="0">倍</tspan></text><text class="cls-7" transform="translate(239.38 52.57)">1.16<tspan class="cls-5" x="27.25" y="0">倍</tspan></text><text class="cls-7" transform="translate(328.79 80.1)">1.05<tspan class="cls-5" x="27.25" y="0">倍</tspan></text><text class="cls-7" transform="translate(418.21 92.11)">1.00<tspan class="cls-5" x="27.25" y="0">倍</tspan></text><text class="cls-7" transform="translate(507.62 22.23)">1.28<tspan class="cls-5" x="27.25" y="0">倍</tspan></text><text class="cls-7" transform="translate(597.03 88.54)">1.01<tspan class="cls-5" x="27.25" y="0">倍</tspan></text><text class="cls-7" transform="translate(686.44 85.82)">1.03<tspan class="cls-5" x="27.25" y="0">倍</tspan></text><text class="cls-8" transform="translate(0 122.23)">单位一</text><line class="cls-9" x1="1.5" y1="102.1" x2="761.5" y2="102.11"/><rect class="cls-10" x="672.09" y="0.5" width="14.54" height="14.54"/><rect class="cls-11" x="672.09" y="22.23" width="14.54" height="14.54"/><text class="cls-8" transform="translate(691.44 12.56)">支出</text><text class="cls-8" transform="translate(691.44 36.77)">收入</text></g></g></svg>